# xmcd
# Track frame offsets:
# 150
# 11898
# 27441
# 42254
# 61635
# 83697
# 102223
# 117717
# 129623
# 146731
#
# Disc length: 2263 seconds
# Revision: 0
# Processed by: cddbd v1.4PL0 Copyright (c) Steve Scherf et al.
# Submitted via: VisiTrax 2.9.5.180 - For more info visit www.synapsa.com
#
DISCID=8708d50a
DTITLE=Troy Olsen - Living in your world
DYEAR=2001
DGENRE=
TTITLE0=Living in your world
TTITLE1=Making believe
TTITLE2=She's mine
TTITLE3=Who gave you the right
TTITLE4=Heaven that I found
TTITLE5=The Hank song
TTITLE6=Little by little
TTITLE7=Stronger than wine
TTITLE8=Rock me
TTITLE9=Trying to find love
EXTD=
EXTT0=
EXTT1=
EXTT2=
EXTT3=
EXTT4=
EXTT5=
EXTT6=
EXTT7=
EXTT8=
EXTT9=
PLAYORDER=
